<svg width="20" height="20" viewBox="0 0 20 20" fill="none" xmlns="http://www.w3.org/2000/svg">
<g clip-path="url(#clip0_1193_800)">
<path d="M6.88892 13.1109V9.99978C6.88892 9.17467 7.21669 8.38334 7.80014 7.7999C8.38359 7.21645 9.17491 6.88867 10 6.88867C10.8251 6.88867 11.6165 7.21645 12.1999 7.7999C12.7834 8.38334 13.1111 9.17467 13.1111 9.99978V13.1109" stroke="currentColor" stroke-width="1.55556" stroke-linecap="round" stroke-linejoin="round"/>
<path d="M3 10H3.77778M10 3V3.77778M16.2222 10H17M5.02222 5.02222L5.56667 5.56667M14.9778 5.02222L14.4333 5.56667" stroke="currentColor" stroke-width="1.55556" stroke-linecap="round" stroke-linejoin="round"/>
<path d="M5.33337 13.8886C5.33337 13.6823 5.41532 13.4845 5.56118 13.3386C5.70704 13.1928 5.90487 13.1108 6.11115 13.1108H13.8889C14.0952 13.1108 14.293 13.1928 14.4389 13.3386C14.5848 13.4845 14.6667 13.6823 14.6667 13.8886V15.4442C14.6667 15.6505 14.5848 15.8483 14.4389 15.9941C14.293 16.14 14.0952 16.222 13.8889 16.222H6.11115C5.90487 16.222 5.70704 16.14 5.56118 15.9941C5.41532 15.8483 5.33337 15.6505 5.33337 15.4442V13.8886Z" stroke="currentColor" stroke-width="1.55556" stroke-linecap="round" stroke-linejoin="round"/>
</g>
<defs>
<clipPath id="clip0_1193_800">
<rect width="18.6667" height="18.6667" fill="white" transform="translate(0.666626 0.666504)"/>
</clipPath>
</defs>
</svg>
