<svg width="20" height="20" viewBox="0 0 20 20" fill="none" xmlns="http://www.w3.org/2000/svg">
<g clip-path="url(#clip0_1193_807)">
<path d="M8.83333 15.4445H4.55556C4.143 15.4445 3.74733 15.2806 3.45561 14.9889C3.16389 14.6972 3 14.3015 3 13.8889V5.33339C3 4.92083 3.16389 4.52517 3.45561 4.23344C3.74733 3.94172 4.143 3.77783 4.55556 3.77783H7.66667L10 6.11117H15.4444C15.857 6.11117 16.2527 6.27505 16.5444 6.56678C16.8361 6.8585 17 7.25416 17 7.66672V9.22228" stroke="currentColor" stroke-width="1.55556" stroke-linecap="round" stroke-linejoin="round"/>
<path d="M14.6666 17.7776L17.2722 15.2234C17.432 15.0684 17.5591 14.8829 17.646 14.6779C17.7329 14.4729 17.7778 14.2526 17.7782 14.03C17.7786 13.8073 17.7343 13.5869 17.6481 13.3816C17.5618 13.1763 17.4353 12.9904 17.2761 12.8349C16.9511 12.517 16.5148 12.3387 16.0602 12.3378C15.6056 12.3369 15.1686 12.5136 14.8424 12.8302L14.6682 13.0013L14.4947 12.8302C14.1698 12.5126 13.7336 12.3344 13.2792 12.3335C12.8248 12.3326 12.388 12.5092 12.0618 12.8255C11.902 12.9805 11.7749 13.166 11.6879 13.3709C11.6009 13.5759 11.5559 13.7962 11.5554 14.0188C11.555 14.2415 11.5992 14.4619 11.6853 14.6672C11.7715 14.8725 11.898 15.0585 12.0572 15.2141L14.6666 17.7776Z" stroke="currentColor" stroke-width="1.55556" stroke-linecap="round" stroke-linejoin="round"/>
</g>
<defs>
<clipPath id="clip0_1193_807">
<rect width="18.6667" height="18.6667" fill="white" transform="translate(0.666626 0.666504)"/>
</clipPath>
</defs>
</svg>
