<svg width="20" height="20" viewBox="0 0 20 20" fill="none" xmlns="http://www.w3.org/2000/svg">
<g clip-path="url(#clip0_1193_423)">
<path d="M15.4445 7.44123L11.2966 4.21501C10.9326 3.93183 10.4846 3.77808 10.0234 3.77808C9.56218 3.77808 9.11416 3.93183 8.75015 4.21501L4.60148 7.44123C4.35216 7.63512 4.15044 7.88342 4.01174 8.16717C3.87303 8.45092 3.801 8.76261 3.80115 9.07845V14.6785C3.80115 15.091 3.96504 15.4867 4.25676 15.7784C4.54848 16.0701 4.94414 16.234 5.3567 16.234H14.69C15.1026 16.234 15.4983 16.0701 15.79 15.7784C16.0817 15.4867 16.2456 15.091 16.2456 14.6785V9.07845C16.2456 8.43834 15.95 7.83401 15.4445 7.44123Z" stroke="currentColor" stroke-width="1.55556" stroke-linecap="round" stroke-linejoin="round"/>
<path d="M13.1111 12.3335C11.3922 13.3703 8.60625 13.3703 6.88892 12.3335" stroke="currentColor" stroke-width="1.55556" stroke-linecap="round" stroke-linejoin="round"/>
</g>
<defs>
<clipPath id="clip0_1193_423">
<rect width="18.6667" height="18.6667" fill="white" transform="translate(0.666626 0.666748)"/>
</clipPath>
</defs>
</svg>
