<svg width="20" height="20" viewBox="0 0 20 20" fill="none" xmlns="http://www.w3.org/2000/svg">
<g clip-path="url(#clip0_1193_813)">
<path d="M16.125 5.54296C16.3923 5.69498 16.6143 5.91549 16.7681 6.18179C16.9219 6.44809 17.0019 6.75056 17 7.05807V12.7234C17 13.3526 16.6554 13.9328 16.0993 14.2385L10.8493 17.5596C10.5891 17.7025 10.2969 17.7774 10 17.7774C9.70307 17.7774 9.41095 17.7025 9.15067 17.5596L3.90067 14.2385C3.62857 14.0898 3.40143 13.8708 3.24299 13.6042C3.08454 13.3377 3.00062 13.0335 3 12.7234V7.05729C3 6.42807 3.34456 5.84863 3.90067 5.54296L9.15067 2.4474C9.41864 2.29965 9.71966 2.22217 10.0257 2.22217C10.3317 2.22217 10.6327 2.29965 10.9007 2.4474L16.1507 5.54296H16.125Z" stroke="currentColor" stroke-width="1.55556" stroke-linecap="round" stroke-linejoin="round"/>
<path d="M7.66663 9.99984C7.66663 10.6187 7.91246 11.2122 8.35004 11.6498C8.78763 12.0873 9.38112 12.3332 9.99996 12.3332C10.6188 12.3332 11.2123 12.0873 11.6499 11.6498C12.0875 11.2122 12.3333 10.6187 12.3333 9.99984C12.3333 9.381 12.0875 8.78751 11.6499 8.34992C11.2123 7.91234 10.6188 7.6665 9.99996 7.6665C9.38112 7.6665 8.78763 7.91234 8.35004 8.34992C7.91246 8.78751 7.66663 9.381 7.66663 9.99984Z" stroke="currentColor" stroke-width="1.55556" stroke-linecap="round" stroke-linejoin="round"/>
</g>
<defs>
<clipPath id="clip0_1193_813">
<rect width="18.6667" height="18.6667" fill="white" transform="translate(0.666626 0.666504)"/>
</clipPath>
</defs>
</svg>
