<svg width="17" height="17" viewBox="0 0 17 17" fill="none" xmlns="http://www.w3.org/2000/svg">
<g clip-path="url(#clip0_282_305)">
<path d="M7.08337 3.54167C7.08337 3.16594 7.23263 2.80561 7.49831 2.53993C7.76398 2.27426 8.12432 2.125 8.50004 2.125C8.87576 2.125 9.2361 2.27426 9.50177 2.53993C9.76745 2.80561 9.91671 3.16594 9.91671 3.54167C10.7302 3.92631 11.4236 4.52506 11.9227 5.27375C12.4219 6.02244 12.7079 6.89284 12.75 7.79167V9.91667C12.8033 10.357 12.9593 10.7787 13.2054 11.1478C13.4514 11.5169 13.7807 11.8231 14.1667 12.0417H2.83337C3.21937 11.8231 3.54866 11.5169 3.79471 11.1478C4.04077 10.7787 4.19673 10.357 4.25004 9.91667V7.79167C4.29223 6.89284 4.57821 6.02244 5.07734 5.27375C5.57646 4.52506 6.26992 3.92631 7.08337 3.54167Z" stroke="#888888" stroke-width="1.41667" stroke-linecap="round" stroke-linejoin="round"/>
<path d="M6.375 12.0417V12.75C6.375 13.3136 6.59888 13.8541 6.9974 14.2526C7.39591 14.6511 7.93641 14.875 8.5 14.875C9.06358 14.875 9.60409 14.6511 10.0026 14.2526C10.4011 13.8541 10.625 13.3136 10.625 12.75V12.0417" stroke="#888888" stroke-width="1.41667" stroke-linecap="round" stroke-linejoin="round"/>
<path d="M14.8751 4.76496C14.4105 3.75435 13.7358 2.85437 12.896 2.125" stroke="#888888" stroke-width="1.41667" stroke-linecap="round" stroke-linejoin="round"/>
<path d="M2.125 4.76496C2.58921 3.75448 3.2634 2.85451 4.10267 2.125" stroke="#888888" stroke-width="1.41667" stroke-linecap="round" stroke-linejoin="round"/>
</g>
<defs>
<clipPath id="clip0_282_305">
<rect width="17" height="17" fill="white"/>
</clipPath>
</defs>
</svg>
