<svg width="10" height="10" viewBox="0 0 10 10" fill="none" xmlns="http://www.w3.org/2000/svg">
<g clip-path="url(#clip0_303_1411)">
<path d="M5.88232 4.07516L7.57497 3.22902C7.63163 3.2007 7.69459 3.18734 7.75787 3.19019C7.82116 3.19304 7.88266 3.21201 7.93655 3.24531C7.99044 3.2786 8.03493 3.32511 8.06579 3.38043C8.09666 3.43575 8.11288 3.49803 8.11291 3.56138V6.07599C8.11288 6.13934 8.09666 6.20163 8.06579 6.25694C8.03493 6.31226 7.99044 6.35877 7.93655 6.39207C7.88266 6.42536 7.82116 6.44433 7.75787 6.44718C7.69459 6.45003 7.63163 6.43667 7.57497 6.40835L5.88232 5.56222V4.07516Z" stroke="white" stroke-width="0.557647" stroke-linecap="round" stroke-linejoin="round"/>
<path d="M1.4212 3.33176C1.4212 3.13457 1.49954 2.94545 1.63898 2.80601C1.77842 2.66657 1.96754 2.58823 2.16473 2.58823H5.13885C5.33605 2.58823 5.52517 2.66657 5.66461 2.80601C5.80404 2.94545 5.88238 3.13457 5.88238 3.33176V6.30588C5.88238 6.50308 5.80404 6.6922 5.66461 6.83164C5.52517 6.97107 5.33605 7.04941 5.13885 7.04941H2.16473C1.96754 7.04941 1.77842 6.97107 1.63898 6.83164C1.49954 6.6922 1.4212 6.50308 1.4212 6.30588V3.33176Z" stroke="white" stroke-width="0.557647" stroke-linecap="round" stroke-linejoin="round"/>
</g>
<defs>
<clipPath id="clip0_303_1411">
<rect width="8.92235" height="8.92235" fill="white" transform="translate(0.305908 0.357651)"/>
</clipPath>
</defs>
</svg>
